<svg width="400" height="250" viewBox="0 0 400 250" xmlns="http://www.w3.org/2000/svg">
  <defs>
    <linearGradient id="card-bg" x1="0%" y1="0%" x2="100%" y2="100%">
      <stop offset="0%" stop-color="#0d1117"/>
      <stop offset="100%" stop-color="#161b22"/>
    </linearGradient>
    <linearGradient id="card-hover" x1="0%" y1="0%" x2="100%" y2="100%">
      <stop offset="0%" stop-color="#161b22"/>
      <stop offset="100%" stop-color="#0d1117"/>
    </linearGradient>
    
    <linearGradient id="badge-bg" x1="0%" y1="0%" x2="100%" y2="0%">
      <stop offset="0%" stop-color="#a371f7"/>
      <stop offset="100%" stop-color="#bc8cff"/>
    </linearGradient>

    <filter id="glow">
      <feGaussianBlur stdDeviation="2" result="blur"/>
      <feMerge>
        <feMergeNode in="blur"/>
        <feMergeNode in="SourceGraphic"/>
      </feMerge>
    </filter>

    <filter id="shadow" x="-5%" y="-5%" width="110%" height="110%">
      <feDropShadow dx="0" dy="4" stdDeviation="4" flood-color="#000" flood-opacity="0.3"/>
    </filter>
  </defs>

  <style>
    .card { transition: all 0.3s ease; transform-origin: center; cursor: pointer; }
    .card:hover { transform: scale(1.02); filter: drop-shadow(0 8px 12px rgba(0, 0, 0, 0.4)); }
    .card:hover .card-bg-rect { fill: url(#card-hover); stroke: #a371f7; }
    
    .title { font-family: 'Inter', -apple-system, sans-serif; font-size: 18px; font-weight: 600; fill: #c9d1d9; }
    .desc { font-family: 'Inter', -apple-system, sans-serif; font-size: 12px; fill: #8b949e; }
    .feature { font-family: 'Inter', -apple-system, sans-serif; font-size: 11px; fill: #8b949e; }
    .badge-text { font-family: 'Inter', -apple-system, sans-serif; font-size: 10px; font-weight: 500; fill: #c9d1d9; }
    .btn-text { font-family: 'Inter', -apple-system, sans-serif; font-size: 11px; font-weight: 600; fill: #0d1117; }
    .btn-outline-text { font-family: 'Inter', -apple-system, sans-serif; font-size: 11px; font-weight: 600; fill: #c9d1d9; }
  </style>

  <g class="card">
    <rect x="5" y="5" width="390" height="240" rx="8" fill="url(#card-bg)" stroke="#30363d" stroke-width="1" class="card-bg-rect" filter="url(#shadow)"/>
    
    <!-- Thumbnail Area -->
    <rect x="5" y="5" width="390" height="70" rx="8" fill="#161b22" stroke="#30363d" stroke-width="1" style="border-bottom-left-radius:0; border-bottom-right-radius:0; border-bottom:none;"/>
    
    <path d="M 38 45 L 38 27 Q 50 22 62 27 L 62 45 Q 50 40 38 45 Z" fill="url(#badge-bg)" filter="url(#glow)"/>
    <path d="M 62 45 L 62 27 Q 74 22 86 27 L 86 45 Q 74 40 62 45 Z" fill="url(#badge-bg)" filter="url(#glow)"/>

    <!-- Badges -->
    <g transform="translate(290, 15)">
      <rect x="0" y="0" width="90" height="22" rx="11" fill="#21262d" stroke="#30363d" stroke-width="1"/>
      <circle cx="12" cy="11" r="3" fill="#d29922"/>
      <text x="22" y="15" class="badge-text" fill="#c9d1d9">BUILDING</text>
    </g>

    <!-- Content -->
    <text x="20" y="100" class="title">AI Story Generator</text>
    <text x="20" y="125" class="desc">LLM-powered tool to generate interactive</text>
    <text x="20" y="140" class="desc">fiction and multi-branch narratives.</text>

    <!-- Tech Stack -->
    <g transform="translate(20, 160)">
      <rect x="0" y="0" width="95" height="22" rx="4" fill="#21262d" stroke="#30363d" stroke-width="1"/>
      <text x="47.5" y="15" class="badge-text" text-anchor="middle">Transformers</text>
      
      <rect x="105" y="0" width="70" height="22" rx="4" fill="#21262d" stroke="#30363d" stroke-width="1"/>
      <text x="140" y="15" class="badge-text" text-anchor="middle">React.js</text>

      <rect x="185" y="0" width="60" height="22" rx="4" fill="#21262d" stroke="#30363d" stroke-width="1"/>
      <text x="215" y="15" class="badge-text" text-anchor="middle">OpenAI</text>
    </g>

    <!-- Key Feature -->
    <circle cx="25" cy="205" r="3" fill="#8b949e"/>
    <text x="35" y="209" class="feature">Context-aware branching logic</text>

    <!-- Buttons -->
    <g transform="translate(220, 200)">
      <rect x="0" y="0" width="75" height="28" rx="6" fill="#21262d" stroke="#30363d" stroke-width="1"/>
      <text x="37.5" y="18" class="btn-outline-text" text-anchor="middle">GitHub</text>

      <rect x="85" y="0" width="75" height="28" rx="6" fill="#c9d1d9"/>
      <text x="122.5" y="18" class="btn-text" text-anchor="middle">Demo ↗</text>
    </g>
  </g>
</svg>