<svg width="1200" height="500" viewBox="0 0 1200 500" xmlns="http://www.w3.org/2000/svg">

<defs>

<linearGradient id="bg" x1="0%" y1="0%" x2="100%" y2="100%">
<stop offset="0%" stop-color="#0D1117"/>
<stop offset="100%" stop-color="#161B22"/>
</linearGradient>

<linearGradient id="title" x1="0%" y1="0%" x2="100%">
<stop offset="0%" stop-color="#7B68EE"/>
<stop offset="100%" stop-color="#00FFFF"/>
</linearGradient>

<filter id="glow">
<feGaussianBlur stdDeviation="3"/>
</filter>

</defs>

<!-- Background -->

<rect
x="0"
y="0"
width="1200"
height="500"
rx="20"
fill="url(#bg)"
stroke="#30363D"/>

<!-- Title -->

<text
x="40"
y="50"
font-size="32"
font-family="Segoe UI"
font-weight="bold"
fill="url(#title)">

🤖 AI OPERATING SYSTEM

</text>

<line
x1="40"
y1="70"
x2="1160"
y2="70"
stroke="#30363D"
stroke-width="2"/>

<!-- Left Panel -->

<rect
x="40"
y="100"
width="350"
height="330"
rx="15"
fill="#0D1117"
stroke="#30363D"/>

<text x="60" y="135" fill="#7B68EE" font-size="22" font-weight="bold">

SYSTEM

</text>

<text x="60" y="175" fill="white" font-size="18">

👩‍💻 User : Umanda Thathsarani

</text>

<text x="60" y="210" fill="white" font-size="18">

🎓 Degree : BSc Information Technology

</text>

<text x="60" y="245" fill="white" font-size="18">

🤖 Major : Artificial Intelligence

</text>

<text x="60" y="280" fill="white" font-size="18">

🌍 Location : Sri Lanka

</text>

<text x="60" y="315" fill="#00FF88" font-size="18">

🟢 Status : ONLINE

</text>

<text x="60" y="350" fill="white" font-size="18">

🎯 Mission :

</text>

<text x="60" y="380" fill="#00BFFF" font-size="17">

Building Intelligent Systems

</text>

<!-- Right Panel -->

<rect
x="430"
y="100"
width="730"
height="330"
rx="15"
fill="#0D1117"
stroke="#30363D"/>

<text
x="460"
y="135"
fill="#7B68EE"
font-size="22"
font-weight="bold">

AI CORE

</text>

<!-- Skill Bars -->

<text x="460" y="185" fill="white">Python</text>
<rect x="620" y="170" width="450" height="15" rx="8" fill="#30363D"/>
<rect x="620" y="170" width="430" height="15" rx="8" fill="#00FFFF"/>

<text x="460" y="225" fill="white">Machine Learning</text>
<rect x="620" y="210" width="450" height="15" rx="8" fill="#30363D"/>
<rect x="620" y="210" width="410" height="15" rx="8" fill="#7B68EE"/>

<text x="460" y="265" fill="white">Computer Vision</text>
<rect x="620" y="250" width="450" height="15" rx="8" fill="#30363D"/>
<rect x="620" y="250" width="390" height="15" rx="8" fill="#00BFFF"/>

<text x="460" y="305" fill="white">Deep Learning</text>
<rect x="620" y="290" width="450" height="15" rx="8" fill="#30363D"/>
<rect x="620" y="290" width="350" height="15" rx="8" fill="#00FFFF"/>

<text x="460" y="345" fill="white">FastAPI</text>
<rect x="620" y="330" width="450" height="15" rx="8" fill="#30363D"/>
<rect x="620" y="330" width="330" height="15" rx="8" fill="#7B68EE"/>

<text x="460" y="385" fill="white">Docker</text>
<rect x="620" y="370" width="450" height="15" rx="8" fill="#30363D"/>
<rect x="620" y="370" width="170" height="15" rx="8" fill="#00BFFF"/>

</svg>